<?xml version="1.0" encoding="UTF-8" standalone="no"?>
<!DOCTYPE svg PUBLIC "-//W3C//DTD SVG 1.1//EN"
 "http://www.w3.org/Graphics/SVG/1.1/DTD/svg11.dtd">
<!-- Generated by graphviz version 2.40.1 (20161225.0304)
 -->
<!-- Title: A Pages: 1 -->
<svg width="358pt" height="875pt"
 viewBox="0.00 0.00 358.00 875.00" xmlns="http://www.w3.org/2000/svg" xmlns:xlink="http://www.w3.org/1999/xlink">
<g id="graph0" class="graph" transform="scale(1 1) rotate(0) translate(4 871)">
<title>A</title>
<polygon fill="#ffffff" stroke="transparent" points="-4,4 -4,-871 354,-871 354,4 -4,4"/>
<g id="clust1" class="cluster">
<title>cluster_pc</title>
<polygon fill="none" stroke="#000000" points="240,-79 240,-294 342,-294 342,-79 240,-79"/>
<text text-anchor="start" x="248" y="-279.8" font-family="Times,serif" font-size="14.00" fill="#000000"> </text>
<text text-anchor="start" x="252" y="-279.8" font-family="Times,serif" font-weight="bold" font-size="14.00" fill="#000000">Passive Close</text>
<text text-anchor="start" x="330" y="-279.8" font-family="Times,serif" font-size="14.00" fill="#000000"> </text>
</g>
<g id="clust2" class="cluster">
<title>cluster_ac</title>
<polygon fill="none" stroke="#000000" points="8,-79 8,-484 232,-484 232,-79 8,-79"/>
<text text-anchor="start" x="79.5" y="-469.8" font-family="Times,serif" font-size="14.00" fill="#000000"> </text>
<text text-anchor="start" x="83.5" y="-469.8" font-family="Times,serif" font-weight="bold" font-size="14.00" fill="#000000">Active Close</text>
<text text-anchor="start" x="156.5" y="-469.8" font-family="Times,serif" font-size="14.00" fill="#000000"> </text>
</g>
<!-- Closed -->
<g id="node1" class="node">
<title>Closed</title>
<polygon fill="none" stroke="#000000" points="280.5,-867 153.5,-867 153.5,-831 280.5,-831 280.5,-867"/>
<text text-anchor="middle" x="217" y="-845.3" font-family="Times,serif" font-size="14.00" fill="#000000">Closed (initial state)</text>
</g>
<!-- Listen -->
<g id="node2" class="node">
<title>Listen</title>
<polygon fill="none" stroke="#000000" points="180,-765 126,-765 126,-729 180,-729 180,-765"/>
<text text-anchor="middle" x="153" y="-743.3" font-family="Times,serif" font-size="14.00" fill="#000000">Listen</text>
</g>
<!-- Closed&#45;&gt;Listen -->
<g id="edge1" class="edge">
<title>Closed&#45;&gt;Listen</title>
<path fill="none" stroke="#000000" d="M158.6887,-830.9045C151.2841,-826.2172 144.6744,-820.3454 140,-813 132.7769,-801.6494 134.6874,-787.1489 138.9738,-774.6321"/>
<polygon fill="#000000" stroke="#000000" points="142.3159,-775.7014 142.7917,-765.1172 135.8194,-773.0946 142.3159,-775.7014"/>
<text text-anchor="middle" x="155" y="-794.3" font-family="Times,serif" font-size="14.00" fill="#000000">listen</text>
</g>
<!-- SynSent -->
<g id="node3" class="node">
<title>SynSent</title>
<polygon fill="none" stroke="#000000" points="308,-765 246,-765 246,-729 308,-729 308,-765"/>
<text text-anchor="middle" x="277" y="-743.3" font-family="Times,serif" font-size="14.00" fill="#000000">SynSent</text>
</g>
<!-- Closed&#45;&gt;SynSent -->
<g id="edge2" class="edge">
<title>Closed&#45;&gt;SynSent</title>
<path fill="none" stroke="#000000" d="M222.4999,-830.8004C227.1034,-817.0563 234.453,-798.0555 244,-783 246.2475,-779.4557 248.8597,-775.936 251.6115,-772.564"/>
<polygon fill="#000000" stroke="#000000" points="254.2517,-774.8617 258.1797,-765.0219 248.9729,-770.2645 254.2517,-774.8617"/>
<text text-anchor="middle" x="267" y="-801.8" font-family="Times,serif" font-size="14.00" fill="#000000">connect</text>
<text text-anchor="middle" x="267" y="-786.8" font-family="Times,serif" font-size="14.00" fill="#000000">→ SYN</text>
</g>
<!-- Listen&#45;&gt;Closed -->
<g id="edge4" class="edge">
<title>Listen&#45;&gt;Closed</title>
<path fill="none" stroke="#000000" stroke-dasharray="1,5" d="M164.3429,-765.0777C174.2323,-780.8391 188.7188,-803.9269 199.9952,-821.8986"/>
<polygon fill="#000000" stroke="#000000" points="197.2784,-824.154 205.5581,-830.7644 203.2079,-820.4336 197.2784,-824.154"/>
<text text-anchor="middle" x="206" y="-794.3" font-family="Times,serif" font-size="14.00" fill="#000000">close</text>
</g>
<!-- SynReceived -->
<g id="node4" class="node">
<title>SynReceived</title>
<polygon fill="none" stroke="#000000" points="241,-663 153,-663 153,-627 241,-627 241,-663"/>
<text text-anchor="middle" x="197" y="-641.3" font-family="Times,serif" font-size="14.00" fill="#000000">SynReceived</text>
</g>
<!-- Listen&#45;&gt;SynReceived -->
<g id="edge3" class="edge">
<title>Listen&#45;&gt;SynReceived</title>
<path fill="none" stroke="#000000" d="M126.1774,-728.6448C120.8363,-723.5995 115.9648,-717.657 113,-711 107.5755,-698.82 105.6601,-692.1312 113,-681 120.1675,-670.1302 131.3714,-662.5299 143.2873,-657.22"/>
<polygon fill="#000000" stroke="#000000" points="144.9032,-660.3458 152.9329,-653.4339 142.3454,-653.8298 144.9032,-660.3458"/>
<text text-anchor="middle" x="154" y="-699.8" font-family="Times,serif" font-size="14.00" fill="#000000">SYN</text>
<text text-anchor="middle" x="154" y="-684.8" font-family="Times,serif" font-size="14.00" fill="#000000">→ SYN+ACK</text>
</g>
<!-- SynSent&#45;&gt;Closed -->
<g id="edge8" class="edge">
<title>SynSent&#45;&gt;Closed</title>
<path fill="none" stroke="#000000" stroke-dasharray="1,5" d="M287.1251,-765.0649C293.5093,-779.0898 299.0038,-798.5206 290,-813 287.2262,-817.4606 283.7188,-821.3849 279.7494,-824.8345"/>
<polygon fill="#000000" stroke="#000000" points="277.5411,-822.1152 271.6177,-830.8995 281.7262,-827.7264 277.5411,-822.1152"/>
<text text-anchor="middle" x="308" y="-794.3" font-family="Times,serif" font-size="14.00" fill="#000000">close</text>
</g>
<!-- Established -->
<g id="node5" class="node">
<title>Established</title>
<polygon fill="none" stroke="#000000" points="276.5,-576 197.5,-576 197.5,-540 276.5,-540 276.5,-576"/>
<text text-anchor="middle" x="237" y="-554.3" font-family="Times,serif" font-size="14.00" fill="#000000">Established</text>
</g>
<!-- SynSent&#45;&gt;Established -->
<g id="edge7" class="edge">
<title>SynSent&#45;&gt;Established</title>
<path fill="none" stroke="#000000" d="M275.4092,-728.7997C272.57,-699.8244 265.6088,-641.6166 252,-594 251.1976,-591.1925 250.2399,-588.3093 249.2019,-585.4555"/>
<polygon fill="#000000" stroke="#000000" points="252.4034,-584.0333 245.4731,-576.0194 245.8932,-586.6059 252.4034,-584.0333"/>
<text text-anchor="middle" x="298" y="-648.8" font-family="Times,serif" font-size="14.00" fill="#000000">SYN+ACK</text>
<text text-anchor="middle" x="298" y="-633.8" font-family="Times,serif" font-size="14.00" fill="#000000">→ ACK</text>
</g>
<!-- SynReceived&#45;&gt;Listen -->
<g id="edge5" class="edge">
<title>SynReceived&#45;&gt;Listen</title>
<path fill="none" stroke="#000000" stroke-dasharray="1,5" d="M200.2441,-663.0073C201.8625,-676.823 202.1736,-696.0054 195,-711 193.0352,-715.1069 190.3578,-718.9273 187.2991,-722.4265"/>
<polygon fill="#000000" stroke="#000000" points="184.7475,-720.0279 180.1227,-729.5601 189.6824,-724.9924 184.7475,-720.0279"/>
<text text-anchor="middle" x="213.5" y="-692.3" font-family="Times,serif" font-size="14.00" fill="#000000">RST</text>
</g>
<!-- SynReceived&#45;&gt;Established -->
<g id="edge6" class="edge">
<title>SynReceived&#45;&gt;Established</title>
<path fill="none" stroke="#000000" d="M205.288,-626.9735C210.8122,-614.9585 218.177,-598.9401 224.4186,-585.3646"/>
<polygon fill="#000000" stroke="#000000" points="227.7252,-586.5512 228.7226,-576.0034 221.3652,-583.627 227.7252,-586.5512"/>
<text text-anchor="middle" x="233.5" y="-597.8" font-family="Times,serif" font-size="14.00" fill="#000000">ACK</text>
</g>
<!-- s0f2 -->
<g id="node6" class="node">
<title>s0f2</title>
<polygon fill="none" stroke="#000000" points="322,-263 248,-263 248,-227 322,-227 322,-263"/>
<text text-anchor="middle" x="285" y="-241.3" font-family="Times,serif" font-size="14.00" fill="#000000">CloseWait</text>
</g>
<!-- Established&#45;&gt;s0f2 -->
<g id="edge10" class="edge">
<title>Established&#45;&gt;s0f2</title>
<path fill="none" stroke="#000000" d="M253.7783,-539.7786C257.813,-534.4154 261.6358,-528.289 264,-522 296.3214,-436.0223 292.1743,-324.6602 287.9316,-273.2698"/>
<polygon fill="#000000" stroke="#000000" points="291.4121,-272.8943 287.0379,-263.2446 284.4398,-273.5159 291.4121,-272.8943"/>
<text text-anchor="middle" x="313.5" y="-387.8" font-family="Times,serif" font-size="14.00" fill="#000000">FIN</text>
<text text-anchor="middle" x="313.5" y="-372.8" font-family="Times,serif" font-size="14.00" fill="#000000">→ ACK</text>
</g>
<!-- s1f0w -->
<g id="node8" class="node">
<title>s1f0w</title>
<polygon fill="none" stroke="#000000" points="224,-453 156,-453 156,-417 224,-417 224,-453"/>
<text text-anchor="middle" x="190" y="-431.3" font-family="Times,serif" font-size="14.00" fill="#000000">FinWait1</text>
</g>
<!-- Established&#45;&gt;s1f0w -->
<g id="edge9" class="edge">
<title>Established&#45;&gt;s1f0w</title>
<path fill="none" stroke="#000000" d="M221.768,-539.8004C217.7938,-534.3435 213.8354,-528.1635 211,-522 202.4495,-503.4133 197.1393,-480.9308 193.9981,-463.477"/>
<polygon fill="#000000" stroke="#000000" points="197.4054,-462.63 192.313,-453.3393 190.5001,-463.7778 197.4054,-462.63"/>
<text text-anchor="middle" x="237.5" y="-510.8" font-family="Times,serif" font-size="14.00" fill="#000000">shutdown</text>
<text text-anchor="middle" x="237.5" y="-495.8" font-family="Times,serif" font-size="14.00" fill="#000000">→ FIN</text>
</g>
<!-- s1f2 -->
<g id="node7" class="node">
<title>s1f2</title>
<polygon fill="none" stroke="#000000" points="311,-123 249,-123 249,-87 311,-87 311,-123"/>
<text text-anchor="middle" x="280" y="-101.3" font-family="Times,serif" font-size="14.00" fill="#000000">LastAck</text>
</g>
<!-- s0f2&#45;&gt;s1f2 -->
<g id="edge16" class="edge">
<title>s0f2&#45;&gt;s1f2</title>
<path fill="none" stroke="#000000" d="M284.3566,-226.9841C283.5137,-203.3829 282.0257,-161.7198 281.0263,-133.7374"/>
<polygon fill="#000000" stroke="#000000" points="284.5116,-133.26 280.6568,-123.3914 277.5161,-133.5099 284.5116,-133.26"/>
<text text-anchor="middle" x="308.5" y="-178.8" font-family="Times,serif" font-size="14.00" fill="#000000">shutdown</text>
<text text-anchor="middle" x="308.5" y="-163.8" font-family="Times,serif" font-size="14.00" fill="#000000">→ FIN</text>
</g>
<!-- s2f2 -->
<g id="node12" class="node">
<title>s2f2</title>
<polygon fill="none" stroke="#000000" points="299,-36 165,-36 165,0 299,0 299,-36"/>
<text text-anchor="middle" x="232" y="-14.3" font-family="Times,serif" font-size="14.00" fill="#000000">Closed (back to start)</text>
</g>
<!-- s1f2&#45;&gt;s2f2 -->
<g id="edge13" class="edge">
<title>s1f2&#45;&gt;s2f2</title>
<path fill="none" stroke="#000000" d="M270.0544,-86.9735C263.361,-74.8418 254.4158,-58.6287 246.8799,-44.9698"/>
<polygon fill="#000000" stroke="#000000" points="249.8282,-43.0684 241.9329,-36.0034 243.6992,-46.4499 249.8282,-43.0684"/>
<text text-anchor="middle" x="272.5" y="-57.8" font-family="Times,serif" font-size="14.00" fill="#000000">ACK</text>
</g>
<!-- s1f2w -->
<g id="node9" class="node">
<title>s1f2w</title>
<polygon fill="none" stroke="#000000" points="138,-263 16,-263 16,-227 138,-227 138,-263"/>
<text text-anchor="middle" x="77" y="-241.3" font-family="Times,serif" font-size="14.00" fill="#000000">Simultaneous close</text>
</g>
<!-- s1f0w&#45;&gt;s1f2w -->
<g id="edge11" class="edge">
<title>s1f0w&#45;&gt;s1f2w</title>
<path fill="none" stroke="#000000" d="M178.7705,-416.6995C168.3786,-399.7181 152.5381,-373.716 139,-351 123.0273,-324.1988 105.0554,-293.4 92.5897,-271.9324"/>
<polygon fill="#000000" stroke="#000000" points="95.4871,-269.9518 87.4417,-263.0582 89.4322,-273.4644 95.4871,-269.9518"/>
<text text-anchor="middle" x="162.5" y="-339.8" font-family="Times,serif" font-size="14.00" fill="#000000">FIN</text>
<text text-anchor="middle" x="162.5" y="-324.8" font-family="Times,serif" font-size="14.00" fill="#000000">→ ACK</text>
</g>
<!-- s2f0w -->
<g id="node10" class="node">
<title>s2f0w</title>
<polygon fill="none" stroke="#000000" points="224,-263 156,-263 156,-227 224,-227 224,-263"/>
<text text-anchor="middle" x="190" y="-241.3" font-family="Times,serif" font-size="14.00" fill="#000000">FinWait2</text>
</g>
<!-- s1f0w&#45;&gt;s2f0w -->
<g id="edge14" class="edge">
<title>s1f0w&#45;&gt;s2f0w</title>
<path fill="none" stroke="#000000" d="M190,-416.782C190,-383.5153 190,-312.7296 190,-273.1957"/>
<polygon fill="#000000" stroke="#000000" points="193.5001,-273.1628 190,-263.1628 186.5001,-273.1629 193.5001,-273.1628"/>
<text text-anchor="middle" x="204.5" y="-332.3" font-family="Times,serif" font-size="14.00" fill="#000000">ACK</text>
</g>
<!-- s2f2w -->
<g id="node11" class="node">
<title>s2f2w</title>
<polygon fill="none" stroke="#000000" points="213.5,-123 140.5,-123 140.5,-87 213.5,-87 213.5,-123"/>
<text text-anchor="middle" x="177" y="-101.3" font-family="Times,serif" font-size="14.00" fill="#000000">TimeWait</text>
</g>
<!-- s1f2w&#45;&gt;s2f2w -->
<g id="edge15" class="edge">
<title>s1f2w&#45;&gt;s2f2w</title>
<path fill="none" stroke="#000000" d="M89.8685,-226.9841C107.1741,-202.7563 138.0751,-159.4949 158.0441,-131.5382"/>
<polygon fill="#000000" stroke="#000000" points="160.899,-133.5631 163.8633,-123.3914 155.2028,-129.4944 160.899,-133.5631"/>
<text text-anchor="middle" x="150.5" y="-171.3" font-family="Times,serif" font-size="14.00" fill="#000000">ACK</text>
</g>
<!-- s2f0w&#45;&gt;s2f2w -->
<g id="edge12" class="edge">
<title>s2f0w&#45;&gt;s2f2w</title>
<path fill="none" stroke="#000000" d="M188.3271,-226.9841C186.1259,-203.2784 182.2326,-161.3507 179.6341,-133.3667"/>
<polygon fill="#000000" stroke="#000000" points="183.1175,-133.0249 178.7078,-123.3914 176.1474,-133.6722 183.1175,-133.0249"/>
<text text-anchor="middle" x="207.5" y="-178.8" font-family="Times,serif" font-size="14.00" fill="#000000">FIN</text>
<text text-anchor="middle" x="207.5" y="-163.8" font-family="Times,serif" font-size="14.00" fill="#000000">→ ACK</text>
</g>
<!-- s2f2w&#45;&gt;s2f2 -->
<g id="edge17" class="edge">
<title>s2f2w&#45;&gt;s2f2</title>
<path fill="none" stroke="#000000" d="M186.7326,-86.7794C192.1537,-76.9223 199.1711,-64.6247 206,-54 208.0374,-50.8302 210.2445,-47.5586 212.4823,-44.3395"/>
<polygon fill="#000000" stroke="#000000" points="215.4365,-46.2246 218.3819,-36.0474 209.7328,-42.1665 215.4365,-46.2246"/>
<text text-anchor="middle" x="227.5" y="-57.8" font-family="Times,serif" font-size="14.00" fill="#000000">timeout</text>
</g>
</g>
</svg>
