<?xml version="1.0" encoding="UTF-8" standalone="no"?>
<!DOCTYPE svg PUBLIC "-//W3C//DTD SVG 1.1//EN"
 "http://www.w3.org/Graphics/SVG/1.1/DTD/svg11.dtd">
<!-- Generated by graphviz version 2.40.1 (20161225.0304)
 -->
<!-- Title: A Pages: 1 -->
<svg width="600pt" height="851pt"
 viewBox="0.00 0.00 599.81 851.00" xmlns="http://www.w3.org/2000/svg" xmlns:xlink="http://www.w3.org/1999/xlink">
<g id="graph0" class="graph" transform="scale(1 1) rotate(0) translate(4 847)">
<title>A</title>
<polygon fill="#ffffff" stroke="transparent" points="-4,4 -4,-847 595.814,-847 595.814,4 -4,4"/>
<g id="clust1" class="cluster">
<title>cluster_pc</title>
<polygon fill="none" stroke="#000000" points="37.7009,-79 37.7009,-460 157.7009,-460 157.7009,-79 37.7009,-79"/>
<text text-anchor="start" x="54.7009" y="-445.8" font-family="Times,serif" font-size="14.00" fill="#000000"> </text>
<text text-anchor="start" x="58.7009" y="-445.8" font-family="Times,serif" font-weight="bold" font-size="14.00" fill="#000000">Passive Close</text>
<text text-anchor="start" x="136.7009" y="-445.8" font-family="Times,serif" font-size="14.00" fill="#000000"> </text>
</g>
<g id="clust2" class="cluster">
<title>cluster_ac</title>
<polygon fill="none" stroke="#000000" points="165.7009,-79 165.7009,-460 571.7009,-460 571.7009,-79 165.7009,-79"/>
<text text-anchor="start" x="328.2009" y="-445.8" font-family="Times,serif" font-size="14.00" fill="#000000"> </text>
<text text-anchor="start" x="332.2009" y="-445.8" font-family="Times,serif" font-weight="bold" font-size="14.00" fill="#000000">Active Close</text>
<text text-anchor="start" x="405.2009" y="-445.8" font-family="Times,serif" font-size="14.00" fill="#000000"> </text>
</g>
<!-- Closed -->
<g id="node1" class="node">
<title>Closed</title>
<polygon fill="none" stroke="#000000" points="543.2009,-843 416.2009,-843 416.2009,-807 543.2009,-807 543.2009,-843"/>
<text text-anchor="middle" x="479.7009" y="-821.3" font-family="Times,serif" font-size="14.00" fill="#000000">Closed (initial state)</text>
</g>
<!-- Listen -->
<g id="node3" class="node">
<title>Listen</title>
<polygon fill="none" stroke="#000000" points="508.7009,-741 454.7009,-741 454.7009,-705 508.7009,-705 508.7009,-741"/>
<text text-anchor="middle" x="481.7009" y="-719.3" font-family="Times,serif" font-size="14.00" fill="#000000">Listen</text>
</g>
<!-- Closed&#45;&gt;Listen -->
<g id="edge1" class="edge">
<title>Closed&#45;&gt;Listen</title>
<path fill="none" stroke="#000000" d="M498.3464,-806.6943C502.5656,-801.4192 506.4587,-795.3577 508.7009,-789 513.1356,-776.4258 512.9173,-771.6491 508.7009,-759 507.6386,-755.813 506.1714,-752.681 504.4653,-749.6753"/>
<polygon fill="#000000" stroke="#000000" points="507.2338,-747.5167 498.7962,-741.1091 501.3963,-751.3799 507.2338,-747.5167"/>
<text text-anchor="middle" x="526.7009" y="-770.3" font-family="Times,serif" font-size="14.00" fill="#000000">listen</text>
</g>
<!-- SynSent -->
<g id="node4" class="node">
<title>SynSent</title>
<polygon fill="none" stroke="#000000" points="390.7009,-741 328.7009,-741 328.7009,-705 390.7009,-705 390.7009,-741"/>
<text text-anchor="middle" x="359.7009" y="-719.3" font-family="Times,serif" font-size="14.00" fill="#000000">SynSent</text>
</g>
<!-- Closed&#45;&gt;SynSent -->
<g id="edge2" class="edge">
<title>Closed&#45;&gt;SynSent</title>
<path fill="none" stroke="#000000" d="M416.0106,-812.8035C391.6653,-806.748 367.9783,-798.651 360.7009,-789 352.7234,-778.4204 351.7481,-763.9338 353.0772,-751.2277"/>
<polygon fill="#000000" stroke="#000000" points="356.5743,-751.5135 354.6325,-741.0981 349.6554,-750.4511 356.5743,-751.5135"/>
<text text-anchor="middle" x="383.7009" y="-777.8" font-family="Times,serif" font-size="14.00" fill="#000000">connect</text>
<text text-anchor="middle" x="383.7009" y="-762.8" font-family="Times,serif" font-size="14.00" fill="#000000">→ SYN</text>
</g>
<!-- Established -->
<g id="node2" class="node">
<title>Established</title>
<polygon fill="none" stroke="#000000" points="396.2009,-552 317.2009,-552 317.2009,-516 396.2009,-516 396.2009,-552"/>
<text text-anchor="middle" x="356.7009" y="-530.3" font-family="Times,serif" font-size="14.00" fill="#000000">Established</text>
</g>
<!-- s0f2 -->
<g id="node6" class="node">
<title>s0f2</title>
<polygon fill="none" stroke="#000000" points="141.7009,-429 67.7009,-429 67.7009,-393 141.7009,-393 141.7009,-429"/>
<text text-anchor="middle" x="104.7009" y="-407.3" font-family="Times,serif" font-size="14.00" fill="#000000">CloseWait</text>
</g>
<!-- Established&#45;&gt;s0f2 -->
<g id="edge11" class="edge">
<title>Established&#45;&gt;s0f2</title>
<path fill="none" stroke="#000000" d="M317.1519,-523.4104C276.4184,-511.514 211.9672,-489.8846 161.7009,-460 150.4839,-453.3312 139.3326,-444.3956 129.9074,-435.9817"/>
<polygon fill="#000000" stroke="#000000" points="132.1595,-433.2976 122.4325,-429.0979 127.4175,-438.4468 132.1595,-433.2976"/>
<text text-anchor="middle" x="262.2009" y="-486.8" font-family="Times,serif" font-size="14.00" fill="#000000">FIN</text>
<text text-anchor="middle" x="262.2009" y="-471.8" font-family="Times,serif" font-size="14.00" fill="#000000">→ ACK</text>
</g>
<!-- s1f0w -->
<g id="node9" class="node">
<title>s1f0w</title>
<polygon fill="none" stroke="#000000" points="367.7009,-429 299.7009,-429 299.7009,-393 367.7009,-393 367.7009,-429"/>
<text text-anchor="middle" x="333.7009" y="-407.3" font-family="Times,serif" font-size="14.00" fill="#000000">FinWait1</text>
</g>
<!-- Established&#45;&gt;s1f0w -->
<g id="edge9" class="edge">
<title>Established&#45;&gt;s1f0w</title>
<path fill="none" stroke="#000000" d="M353.3072,-515.8509C349.5362,-495.6843 343.3991,-462.8643 338.9953,-439.3133"/>
<polygon fill="#000000" stroke="#000000" points="342.3871,-438.4098 337.1086,-429.2235 335.5063,-439.6965 342.3871,-438.4098"/>
<text text-anchor="middle" x="376.2009" y="-486.8" font-family="Times,serif" font-size="14.00" fill="#000000">shutdown</text>
<text text-anchor="middle" x="376.2009" y="-471.8" font-family="Times,serif" font-size="14.00" fill="#000000">→ FIN</text>
</g>
<!-- s1f0wc -->
<g id="node10" class="node">
<title>s1f0wc</title>
<polygon fill="none" stroke="#000000" points="388.2009,-327 279.2009,-327 279.2009,-291 388.2009,-291 388.2009,-327"/>
<text text-anchor="middle" x="333.7009" y="-305.3" font-family="Times,serif" font-size="14.00" fill="#000000">FinWait1 (close)</text>
</g>
<!-- Established&#45;&gt;s1f0wc -->
<g id="edge10" class="edge">
<title>Established&#45;&gt;s1f0wc</title>
<path fill="none" stroke="#000000" d="M389.2562,-515.9324C395.889,-510.9067 402.2042,-504.9004 406.7009,-498 444.359,-440.2125 472.2716,-401.4951 432.7009,-345 427.8989,-338.1442 413.8739,-331.5886 397.8354,-325.9949"/>
<polygon fill="#000000" stroke="#000000" points="398.8071,-322.63 388.2139,-322.8177 396.6121,-329.2769 398.8071,-322.63"/>
<text text-anchor="middle" x="471.7009" y="-414.8" font-family="Times,serif" font-size="14.00" fill="#000000">close</text>
<text text-anchor="middle" x="471.7009" y="-399.8" font-family="Times,serif" font-size="14.00" fill="#000000">→ FIN</text>
</g>
<!-- Listen&#45;&gt;Closed -->
<g id="edge4" class="edge">
<title>Listen&#45;&gt;Closed</title>
<path fill="none" stroke="#000000" stroke-dasharray="1,5" d="M478.6668,-741.2632C477.8595,-746.9304 477.1012,-753.2086 476.7009,-759 475.8472,-771.3529 476.2469,-785.024 476.9948,-796.7048"/>
<polygon fill="#000000" stroke="#000000" points="473.5122,-797.0689 477.7536,-806.7777 480.4925,-796.5431 473.5122,-797.0689"/>
<text text-anchor="middle" x="490.7009" y="-770.3" font-family="Times,serif" font-size="14.00" fill="#000000">close</text>
</g>
<!-- SynReceived -->
<g id="node5" class="node">
<title>SynReceived</title>
<polygon fill="none" stroke="#000000" points="526.7009,-639 438.7009,-639 438.7009,-603 526.7009,-603 526.7009,-639"/>
<text text-anchor="middle" x="482.7009" y="-617.3" font-family="Times,serif" font-size="14.00" fill="#000000">SynReceived</text>
</g>
<!-- Listen&#45;&gt;SynReceived -->
<g id="edge3" class="edge">
<title>Listen&#45;&gt;SynReceived</title>
<path fill="none" stroke="#000000" d="M481.8797,-704.7644C482.0311,-689.317 482.2508,-666.9149 482.4248,-649.164"/>
<polygon fill="#000000" stroke="#000000" points="485.9254,-649.1115 482.5237,-639.0777 478.9257,-649.0429 485.9254,-649.1115"/>
<text text-anchor="middle" x="522.7009" y="-675.8" font-family="Times,serif" font-size="14.00" fill="#000000">SYN</text>
<text text-anchor="middle" x="522.7009" y="-660.8" font-family="Times,serif" font-size="14.00" fill="#000000">→ SYN+ACK</text>
</g>
<!-- SynSent&#45;&gt;Closed -->
<g id="edge8" class="edge">
<title>SynSent&#45;&gt;Closed</title>
<path fill="none" stroke="#000000" stroke-dasharray="1,5" d="M384.3914,-741.3134C391.6728,-746.8739 399.5923,-753.0807 406.7009,-759 422.3959,-772.0691 439.3504,-787.3237 452.966,-799.8732"/>
<polygon fill="#000000" stroke="#000000" points="450.8483,-802.6825 460.5621,-806.9126 455.6064,-797.5482 450.8483,-802.6825"/>
<text text-anchor="middle" x="452.7009" y="-770.3" font-family="Times,serif" font-size="14.00" fill="#000000">close</text>
</g>
<!-- SynSent&#45;&gt;Established -->
<g id="edge7" class="edge">
<title>SynSent&#45;&gt;Established</title>
<path fill="none" stroke="#000000" d="M359.4133,-704.8779C358.8891,-671.8568 357.7751,-601.6732 357.1501,-562.2992"/>
<polygon fill="#000000" stroke="#000000" points="360.6461,-562.0104 356.9877,-552.0672 353.6469,-562.1216 360.6461,-562.0104"/>
<text text-anchor="middle" x="389.7009" y="-624.8" font-family="Times,serif" font-size="14.00" fill="#000000">SYN+ACK</text>
<text text-anchor="middle" x="389.7009" y="-609.8" font-family="Times,serif" font-size="14.00" fill="#000000">→ ACK</text>
</g>
<!-- SynReceived&#45;&gt;Established -->
<g id="edge6" class="edge">
<title>SynReceived&#45;&gt;Established</title>
<path fill="none" stroke="#000000" d="M456.5936,-602.9735C437.672,-589.9086 411.895,-572.1102 391.2657,-557.8662"/>
<polygon fill="#000000" stroke="#000000" points="392.9924,-554.8052 382.7747,-552.0034 389.0151,-560.5655 392.9924,-554.8052"/>
<text text-anchor="middle" x="441.2009" y="-573.8" font-family="Times,serif" font-size="14.00" fill="#000000">ACK</text>
</g>
<!-- SynReceived&#45;&gt;Listen -->
<g id="edge5" class="edge">
<title>SynReceived&#45;&gt;Listen</title>
<path fill="none" stroke="#000000" stroke-dasharray="1,5" d="M463.4218,-639.2136C459.0571,-644.4894 455.0274,-650.5742 452.7009,-657 448.1619,-669.537 448.2662,-674.4258 452.7009,-687 453.822,-690.1789 455.3559,-693.2837 457.1368,-696.2531"/>
<polygon fill="#000000" stroke="#000000" points="454.4486,-698.5157 463.0554,-704.6943 460.1801,-694.497 454.4486,-698.5157"/>
<text text-anchor="middle" x="465.2009" y="-668.3" font-family="Times,serif" font-size="14.00" fill="#000000">RST</text>
</g>
<!-- s1f2 -->
<g id="node7" class="node">
<title>s1f2</title>
<polygon fill="none" stroke="#000000" points="127.7009,-225 65.7009,-225 65.7009,-189 127.7009,-189 127.7009,-225"/>
<text text-anchor="middle" x="96.7009" y="-203.3" font-family="Times,serif" font-size="14.00" fill="#000000">LastAck</text>
</g>
<!-- s0f2&#45;&gt;s1f2 -->
<g id="edge17" class="edge">
<title>s0f2&#45;&gt;s1f2</title>
<path fill="none" stroke="#000000" d="M103.991,-392.8964C102.5944,-357.2839 99.481,-277.8929 97.8106,-235.2972"/>
<polygon fill="#000000" stroke="#000000" points="101.2985,-234.9182 97.4093,-225.0631 94.3039,-235.1926 101.2985,-234.9182"/>
<text text-anchor="middle" x="128.2009" y="-312.8" font-family="Times,serif" font-size="14.00" fill="#000000">shutdown</text>
<text text-anchor="middle" x="128.2009" y="-297.8" font-family="Times,serif" font-size="14.00" fill="#000000">→ FIN</text>
</g>
<!-- s1f2c -->
<g id="node8" class="node">
<title>s1f2c</title>
<polygon fill="none" stroke="#000000" points="149.2009,-123 46.2009,-123 46.2009,-87 149.2009,-87 149.2009,-123"/>
<text text-anchor="middle" x="97.7009" y="-101.3" font-family="Times,serif" font-size="14.00" fill="#000000">LastAck (close)</text>
</g>
<!-- s1f2&#45;&gt;s1f2c -->
<g id="edge19" class="edge">
<title>s1f2&#45;&gt;s1f2c</title>
<path fill="none" stroke="#000000" d="M96.8797,-188.7644C97.0311,-173.317 97.2508,-150.9149 97.4248,-133.164"/>
<polygon fill="#000000" stroke="#000000" points="100.9254,-133.1115 97.5237,-123.0777 93.9257,-133.0429 100.9254,-133.1115"/>
<text text-anchor="middle" x="111.7009" y="-152.3" font-family="Times,serif" font-size="14.00" fill="#000000">close</text>
</g>
<!-- s2f2 -->
<g id="node17" class="node">
<title>s2f2</title>
<polygon fill="none" stroke="#000000" points="224.7009,-36 106.7009,-36 106.7009,0 224.7009,0 224.7009,-36"/>
<text text-anchor="middle" x="165.7009" y="-14.3" font-family="Times,serif" font-size="14.00" fill="#000000">Wait for close call</text>
</g>
<!-- s1f2&#45;&gt;s2f2 -->
<g id="edge14" class="edge">
<title>s1f2&#45;&gt;s2f2</title>
<path fill="none" stroke="#000000" d="M68.1652,-188.8216C32.9275,-164.0527 -19.2428,-118.2843 7.7009,-79 18.5404,-63.1958 59.306,-47.6707 96.7114,-36.238"/>
<polygon fill="#000000" stroke="#000000" points="98.055,-39.4895 106.635,-33.2738 96.0515,-32.7823 98.055,-39.4895"/>
<text text-anchor="middle" x="22.2009" y="-101.3" font-family="Times,serif" font-size="14.00" fill="#000000">ACK</text>
</g>
<!-- s2f2c -->
<g id="node18" class="node">
<title>s2f2c</title>
<polygon fill="none" stroke="#000000" points="404.7009,-36 270.7009,-36 270.7009,0 404.7009,0 404.7009,-36"/>
<text text-anchor="middle" x="337.7009" y="-14.3" font-family="Times,serif" font-size="14.00" fill="#000000">Closed (back to start)</text>
</g>
<!-- s1f2c&#45;&gt;s2f2c -->
<g id="edge26" class="edge">
<title>s1f2c&#45;&gt;s2f2c</title>
<path fill="none" stroke="#000000" d="M141.3038,-86.9319C148.1085,-84.2149 155.078,-81.491 161.7009,-79 198.4789,-65.1668 239.9934,-50.7231 273.463,-39.3648"/>
<polygon fill="#000000" stroke="#000000" points="274.7764,-42.6154 283.1271,-36.0949 272.5329,-35.9846 274.7764,-42.6154"/>
<text text-anchor="middle" x="243.2009" y="-57.8" font-family="Times,serif" font-size="14.00" fill="#000000">ACK</text>
</g>
<!-- s1f0w&#45;&gt;s1f0wc -->
<g id="edge18" class="edge">
<title>s1f0w&#45;&gt;s1f0wc</title>
<path fill="none" stroke="#000000" d="M333.7009,-392.7644C333.7009,-377.317 333.7009,-354.9149 333.7009,-337.164"/>
<polygon fill="#000000" stroke="#000000" points="337.201,-337.0776 333.7009,-327.0777 330.201,-337.0777 337.201,-337.0776"/>
<text text-anchor="middle" x="347.7009" y="-356.3" font-family="Times,serif" font-size="14.00" fill="#000000">close</text>
</g>
<!-- s2f0w -->
<g id="node11" class="node">
<title>s2f0w</title>
<polygon fill="none" stroke="#000000" points="241.7009,-327 173.7009,-327 173.7009,-291 241.7009,-291 241.7009,-327"/>
<text text-anchor="middle" x="207.7009" y="-305.3" font-family="Times,serif" font-size="14.00" fill="#000000">FinWait2</text>
</g>
<!-- s1f0w&#45;&gt;s2f0w -->
<g id="edge15" class="edge">
<title>s1f0w&#45;&gt;s2f0w</title>
<path fill="none" stroke="#000000" d="M311.4647,-392.9992C291.0781,-376.4958 260.7114,-351.9132 238.0897,-333.6005"/>
<polygon fill="#000000" stroke="#000000" points="240.1134,-330.7356 230.1387,-327.1639 235.7089,-336.1763 240.1134,-330.7356"/>
<text text-anchor="middle" x="299.2009" y="-356.3" font-family="Times,serif" font-size="14.00" fill="#000000">ACK</text>
</g>
<!-- s1f2w -->
<g id="node13" class="node">
<title>s1f2w</title>
<polygon fill="none" stroke="#000000" points="563.7009,-327 441.7009,-327 441.7009,-291 563.7009,-291 563.7009,-327"/>
<text text-anchor="middle" x="502.7009" y="-305.3" font-family="Times,serif" font-size="14.00" fill="#000000">Simultaneous close</text>
</g>
<!-- s1f0w&#45;&gt;s1f2w -->
<g id="edge12" class="edge">
<title>s1f0w&#45;&gt;s1f2w</title>
<path fill="none" stroke="#000000" d="M363.5257,-392.9992C391.4692,-376.1339 433.3924,-350.8312 463.9223,-332.4049"/>
<polygon fill="#000000" stroke="#000000" points="465.8529,-335.3278 472.6058,-327.1639 462.2357,-329.3347 465.8529,-335.3278"/>
<text text-anchor="middle" x="461.2009" y="-363.8" font-family="Times,serif" font-size="14.00" fill="#000000">FIN</text>
<text text-anchor="middle" x="461.2009" y="-348.8" font-family="Times,serif" font-size="14.00" fill="#000000">→ ACK</text>
</g>
<!-- s2f0wc -->
<g id="node12" class="node">
<title>s2f0wc</title>
<polygon fill="none" stroke="#000000" points="283.2009,-225 174.2009,-225 174.2009,-189 283.2009,-189 283.2009,-225"/>
<text text-anchor="middle" x="228.7009" y="-203.3" font-family="Times,serif" font-size="14.00" fill="#000000">FinWait2 (close)</text>
</g>
<!-- s1f0wc&#45;&gt;s2f0wc -->
<g id="edge27" class="edge">
<title>s1f0wc&#45;&gt;s2f0wc</title>
<path fill="none" stroke="#000000" d="M330.1027,-290.7399C326.4131,-276.229 319.3681,-256.2384 306.7009,-243 302.0593,-238.1491 296.6383,-233.8911 290.8555,-230.1674"/>
<polygon fill="#000000" stroke="#000000" points="292.5715,-227.1164 282.1728,-225.0873 289.0365,-233.1582 292.5715,-227.1164"/>
<text text-anchor="middle" x="338.2009" y="-254.3" font-family="Times,serif" font-size="14.00" fill="#000000">ACK</text>
</g>
<!-- s1f2wc -->
<g id="node14" class="node">
<title>s1f2wc</title>
<polygon fill="none" stroke="#000000" points="563.2009,-225 400.2009,-225 400.2009,-189 563.2009,-189 563.2009,-225"/>
<text text-anchor="middle" x="481.7009" y="-203.3" font-family="Times,serif" font-size="14.00" fill="#000000">Simultaneous close (close)</text>
</g>
<!-- s1f0wc&#45;&gt;s1f2wc -->
<g id="edge24" class="edge">
<title>s1f0wc&#45;&gt;s1f2wc</title>
<path fill="none" stroke="#000000" d="M345.0638,-290.9873C356.1516,-273.8837 372.6351,-249.8032 381.7009,-243 388.7244,-237.7293 396.5924,-233.1742 404.7482,-229.2507"/>
<polygon fill="#000000" stroke="#000000" points="406.3533,-232.3669 414.049,-225.0848 403.4919,-225.9784 406.3533,-232.3669"/>
<text text-anchor="middle" x="405.2009" y="-261.8" font-family="Times,serif" font-size="14.00" fill="#000000">FIN</text>
<text text-anchor="middle" x="405.2009" y="-246.8" font-family="Times,serif" font-size="14.00" fill="#000000">→ ACK</text>
</g>
<!-- s2f0w&#45;&gt;s2f0wc -->
<g id="edge21" class="edge">
<title>s2f0w&#45;&gt;s2f0wc</title>
<path fill="none" stroke="#000000" d="M205.6199,-290.7451C204.6517,-277.3083 204.4998,-258.7211 208.7009,-243 209.4623,-240.1507 210.4976,-237.285 211.6988,-234.482"/>
<polygon fill="#000000" stroke="#000000" points="214.9417,-235.8214 216.2646,-225.3095 208.6751,-232.7021 214.9417,-235.8214"/>
<text text-anchor="middle" x="222.7009" y="-254.3" font-family="Times,serif" font-size="14.00" fill="#000000">close</text>
</g>
<!-- s2f2w -->
<g id="node15" class="node">
<title>s2f2w</title>
<polygon fill="none" stroke="#000000" points="374.2009,-225 301.2009,-225 301.2009,-189 374.2009,-189 374.2009,-225"/>
<text text-anchor="middle" x="337.7009" y="-203.3" font-family="Times,serif" font-size="14.00" fill="#000000">TimeWait</text>
</g>
<!-- s2f0w&#45;&gt;s2f2w -->
<g id="edge13" class="edge">
<title>s2f0w&#45;&gt;s2f2w</title>
<path fill="none" stroke="#000000" d="M222.8649,-290.9981C227.4485,-285.3415 232.4027,-279.0036 236.7009,-273 245.8883,-260.1673 243.7317,-253.287 255.7009,-243 258.9591,-240.1997 274.6902,-233.1064 291.516,-225.9493"/>
<polygon fill="#000000" stroke="#000000" points="293.0479,-229.1019 300.9041,-221.9935 290.3297,-222.6512 293.0479,-229.1019"/>
<text text-anchor="middle" x="279.2009" y="-261.8" font-family="Times,serif" font-size="14.00" fill="#000000">FIN</text>
<text text-anchor="middle" x="279.2009" y="-246.8" font-family="Times,serif" font-size="14.00" fill="#000000">→ ACK</text>
</g>
<!-- s2f2wc -->
<g id="node16" class="node">
<title>s2f2wc</title>
<polygon fill="none" stroke="#000000" points="394.2009,-123 281.2009,-123 281.2009,-87 394.2009,-87 394.2009,-123"/>
<text text-anchor="middle" x="337.7009" y="-101.3" font-family="Times,serif" font-size="14.00" fill="#000000">TimeWait (close)</text>
</g>
<!-- s2f0wc&#45;&gt;s2f2wc -->
<g id="edge25" class="edge">
<title>s2f0wc&#45;&gt;s2f2wc</title>
<path fill="none" stroke="#000000" d="M242.6802,-188.8756C253.8293,-174.997 270.252,-155.7871 286.7009,-141 291.193,-136.9617 296.1465,-132.9755 301.1475,-129.21"/>
<polygon fill="#000000" stroke="#000000" points="303.5058,-131.8227 309.5357,-123.1112 299.3893,-126.161 303.5058,-131.8227"/>
<text text-anchor="middle" x="310.2009" y="-159.8" font-family="Times,serif" font-size="14.00" fill="#000000">FIN</text>
<text text-anchor="middle" x="310.2009" y="-144.8" font-family="Times,serif" font-size="14.00" fill="#000000">→ ACK</text>
</g>
<!-- s1f2w&#45;&gt;s1f2wc -->
<g id="edge20" class="edge">
<title>s1f2w&#45;&gt;s1f2wc</title>
<path fill="none" stroke="#000000" d="M498.9465,-290.7644C495.7512,-275.2445 491.1106,-252.7044 487.448,-234.9143"/>
<polygon fill="#000000" stroke="#000000" points="490.8675,-234.1664 485.4228,-225.0777 484.0113,-235.5781 490.8675,-234.1664"/>
<text text-anchor="middle" x="507.7009" y="-254.3" font-family="Times,serif" font-size="14.00" fill="#000000">close</text>
</g>
<!-- s1f2w&#45;&gt;s2f2w -->
<g id="edge16" class="edge">
<title>s1f2w&#45;&gt;s2f2w</title>
<path fill="none" stroke="#000000" d="M478.2463,-290.9994C471.1116,-285.4477 463.4288,-279.1674 456.7009,-273 443.2565,-260.6757 443.7714,-253.2725 428.7009,-243 420.8107,-237.6218 402.3049,-230.0259 384.027,-223.1967"/>
<polygon fill="#000000" stroke="#000000" points="385.1407,-219.8771 374.5471,-219.7112 382.725,-226.4471 385.1407,-219.8771"/>
<text text-anchor="middle" x="471.2009" y="-254.3" font-family="Times,serif" font-size="14.00" fill="#000000">ACK</text>
</g>
<!-- s1f2wc&#45;&gt;s2f2wc -->
<g id="edge28" class="edge">
<title>s1f2wc&#45;&gt;s2f2wc</title>
<path fill="none" stroke="#000000" d="M456.2881,-188.9992C432.7848,-172.3511 397.6746,-147.4813 371.7527,-129.12"/>
<polygon fill="#000000" stroke="#000000" points="373.5274,-126.088 363.3441,-123.1639 369.4813,-131.8002 373.5274,-126.088"/>
<text text-anchor="middle" x="441.2009" y="-152.3" font-family="Times,serif" font-size="14.00" fill="#000000">ACK</text>
</g>
<!-- s2f2w&#45;&gt;s2f2wc -->
<g id="edge23" class="edge">
<title>s2f2w&#45;&gt;s2f2wc</title>
<path fill="none" stroke="#000000" d="M337.7009,-188.7644C337.7009,-173.317 337.7009,-150.9149 337.7009,-133.164"/>
<polygon fill="#000000" stroke="#000000" points="341.201,-133.0776 337.7009,-123.0777 334.201,-133.0777 341.201,-133.0776"/>
<text text-anchor="middle" x="351.7009" y="-152.3" font-family="Times,serif" font-size="14.00" fill="#000000">close</text>
</g>
<!-- s2f2w&#45;&gt;s2f2 -->
<g id="edge29" class="edge">
<title>s2f2w&#45;&gt;s2f2</title>
<path fill="none" stroke="#000000" d="M300.9531,-191.8767C279.285,-182.8545 255.7031,-172.8073 253.7009,-171 209.5444,-131.1407 219.173,-105.0884 188.7009,-54 186.8986,-50.9784 184.9746,-47.8405 183.0357,-44.7331"/>
<polygon fill="#000000" stroke="#000000" points="185.9267,-42.7564 177.6211,-36.1786 180.012,-46.5001 185.9267,-42.7564"/>
<text text-anchor="middle" x="239.2009" y="-101.3" font-family="Times,serif" font-size="14.00" fill="#000000">timeout</text>
</g>
<!-- s2f2wc&#45;&gt;s2f2c -->
<g id="edge30" class="edge">
<title>s2f2wc&#45;&gt;s2f2c</title>
<path fill="none" stroke="#000000" d="M337.7009,-86.9735C337.7009,-75.1918 337.7009,-59.5607 337.7009,-46.1581"/>
<polygon fill="#000000" stroke="#000000" points="341.201,-46.0033 337.7009,-36.0034 334.201,-46.0034 341.201,-46.0033"/>
<text text-anchor="middle" x="359.2009" y="-57.8" font-family="Times,serif" font-size="14.00" fill="#000000">timeout</text>
</g>
<!-- s2f2&#45;&gt;s2f2c -->
<g id="edge22" class="edge">
<title>s2f2&#45;&gt;s2f2c</title>
<path fill="none" stroke="#000000" d="M224.8936,-18C236.2425,-18 248.2835,-18 260.1103,-18"/>
<polygon fill="#000000" stroke="#000000" points="260.4257,-21.5001 270.4256,-18 260.4256,-14.5001 260.4257,-21.5001"/>
<text text-anchor="middle" x="247.7009" y="-24.8" font-family="Times,serif" font-size="14.00" fill="#000000">close</text>
</g>
<!-- s2f2c&#45;&gt;Closed -->
<g id="edge31" class="edge">
<title>s2f2c:e&#45;&gt;Closed:e</title>
<path fill="none" stroke="#000000" d="M404.7009,-18C473.4951,-18 591.7009,-60.5276 591.7009,-105 591.7009,-723 591.7009,-723 591.7009,-723 591.7009,-769.4815 593.5102,-817.5085 553.7655,-824.2072"/>
<polygon fill="#000000" stroke="#000000" points="553.3951,-820.7254 543.7009,-825 553.9449,-827.7038 553.3951,-820.7254"/>
</g>
</g>
</svg>
