<?xml version="1.0" encoding="UTF-8" standalone="no"?>
<!DOCTYPE svg PUBLIC "-//W3C//DTD SVG 1.1//EN"
 "http://www.w3.org/Graphics/SVG/1.1/DTD/svg11.dtd">
<!-- Generated by graphviz version 2.40.1 (20161225.0304)
 -->
<!-- Title: A Pages: 1 -->
<svg width="725pt" height="1179pt"
 viewBox="0.00 0.00 725.00 1179.00" xmlns="http://www.w3.org/2000/svg" xmlns:xlink="http://www.w3.org/1999/xlink">
<g id="graph0" class="graph" transform="scale(1 1) rotate(0) translate(4 1175)">
<title>A</title>
<polygon fill="#ffffff" stroke="transparent" points="-4,4 -4,-1175 721,-1175 721,4 -4,4"/>
<g id="clust1" class="cluster">
<title>cluster_pc</title>
<polygon fill="none" stroke="#000000" points="469,-152 469,-694 709,-694 709,-152 469,-152"/>
<text text-anchor="start" x="546" y="-679.8" font-family="Times,serif" font-size="14.00" fill="#000000"> </text>
<text text-anchor="start" x="550" y="-679.8" font-family="Times,serif" font-weight="bold" font-size="14.00" fill="#000000">Passive Close</text>
<text text-anchor="start" x="628" y="-679.8" font-family="Times,serif" font-size="14.00" fill="#000000"> </text>
</g>
<g id="clust2" class="cluster">
<title>cluster_ac</title>
<polygon fill="none" stroke="#000000" points="8,-79 8,-788 461,-788 461,-79 8,-79"/>
<text text-anchor="start" x="194" y="-773.8" font-family="Times,serif" font-size="14.00" fill="#000000"> </text>
<text text-anchor="start" x="198" y="-773.8" font-family="Times,serif" font-weight="bold" font-size="14.00" fill="#000000">Active Close</text>
<text text-anchor="start" x="271" y="-773.8" font-family="Times,serif" font-size="14.00" fill="#000000"> </text>
</g>
<!-- Closed -->
<g id="node1" class="node">
<title>Closed</title>
<polygon fill="none" stroke="#000000" points="483.5,-1171 356.5,-1171 356.5,-1135 483.5,-1135 483.5,-1171"/>
<text text-anchor="middle" x="420" y="-1149.3" font-family="Times,serif" font-size="14.00" fill="#000000">Closed (initial state)</text>
</g>
<!-- Listen -->
<g id="node2" class="node">
<title>Listen</title>
<polygon fill="none" stroke="#000000" points="383,-1069 329,-1069 329,-1033 383,-1033 383,-1069"/>
<text text-anchor="middle" x="356" y="-1047.3" font-family="Times,serif" font-size="14.00" fill="#000000">Listen</text>
</g>
<!-- Closed&#45;&gt;Listen -->
<g id="edge1" class="edge">
<title>Closed&#45;&gt;Listen</title>
<path fill="none" stroke="#000000" d="M361.6887,-1134.9045C354.2841,-1130.2172 347.6744,-1124.3454 343,-1117 335.7769,-1105.6494 337.6874,-1091.1489 341.9738,-1078.6321"/>
<polygon fill="#000000" stroke="#000000" points="345.3159,-1079.7014 345.7917,-1069.1172 338.8194,-1077.0946 345.3159,-1079.7014"/>
<text text-anchor="middle" x="358" y="-1098.3" font-family="Times,serif" font-size="14.00" fill="#000000">listen</text>
</g>
<!-- SynSent -->
<g id="node3" class="node">
<title>SynSent</title>
<polygon fill="none" stroke="#000000" points="511,-1069 449,-1069 449,-1033 511,-1033 511,-1069"/>
<text text-anchor="middle" x="480" y="-1047.3" font-family="Times,serif" font-size="14.00" fill="#000000">SynSent</text>
</g>
<!-- Closed&#45;&gt;SynSent -->
<g id="edge2" class="edge">
<title>Closed&#45;&gt;SynSent</title>
<path fill="none" stroke="#000000" d="M425.4999,-1134.8004C430.1034,-1121.0563 437.453,-1102.0555 447,-1087 449.2475,-1083.4557 451.8597,-1079.936 454.6115,-1076.564"/>
<polygon fill="#000000" stroke="#000000" points="457.2517,-1078.8617 461.1797,-1069.0219 451.9729,-1074.2645 457.2517,-1078.8617"/>
<text text-anchor="middle" x="470" y="-1105.8" font-family="Times,serif" font-size="14.00" fill="#000000">connect</text>
<text text-anchor="middle" x="470" y="-1090.8" font-family="Times,serif" font-size="14.00" fill="#000000">→ SYN</text>
</g>
<!-- Listen&#45;&gt;Closed -->
<g id="edge4" class="edge">
<title>Listen&#45;&gt;Closed</title>
<path fill="none" stroke="#000000" stroke-dasharray="1,5" d="M367.3429,-1069.0777C377.2323,-1084.8391 391.7188,-1107.9269 402.9952,-1125.8986"/>
<polygon fill="#000000" stroke="#000000" points="400.2784,-1128.154 408.5581,-1134.7644 406.2079,-1124.4336 400.2784,-1128.154"/>
<text text-anchor="middle" x="409" y="-1098.3" font-family="Times,serif" font-size="14.00" fill="#000000">close</text>
</g>
<!-- SynReceived -->
<g id="node4" class="node">
<title>SynReceived</title>
<polygon fill="none" stroke="#000000" points="444,-967 356,-967 356,-931 444,-931 444,-967"/>
<text text-anchor="middle" x="400" y="-945.3" font-family="Times,serif" font-size="14.00" fill="#000000">SynReceived</text>
</g>
<!-- Listen&#45;&gt;SynReceived -->
<g id="edge3" class="edge">
<title>Listen&#45;&gt;SynReceived</title>
<path fill="none" stroke="#000000" d="M329.1774,-1032.6448C323.8363,-1027.5995 318.9648,-1021.657 316,-1015 310.5755,-1002.82 308.6601,-996.1312 316,-985 323.1675,-974.1302 334.3714,-966.5299 346.2873,-961.22"/>
<polygon fill="#000000" stroke="#000000" points="347.9032,-964.3458 355.9329,-957.4339 345.3454,-957.8298 347.9032,-964.3458"/>
<text text-anchor="middle" x="357" y="-1003.8" font-family="Times,serif" font-size="14.00" fill="#000000">SYN</text>
<text text-anchor="middle" x="357" y="-988.8" font-family="Times,serif" font-size="14.00" fill="#000000">→ SYN+ACK</text>
</g>
<!-- SynSent&#45;&gt;Closed -->
<g id="edge8" class="edge">
<title>SynSent&#45;&gt;Closed</title>
<path fill="none" stroke="#000000" stroke-dasharray="1,5" d="M490.1251,-1069.0649C496.5093,-1083.0898 502.0038,-1102.5206 493,-1117 490.2262,-1121.4606 486.7188,-1125.3849 482.7494,-1128.8345"/>
<polygon fill="#000000" stroke="#000000" points="480.5411,-1126.1152 474.6177,-1134.8995 484.7262,-1131.7264 480.5411,-1126.1152"/>
<text text-anchor="middle" x="511" y="-1098.3" font-family="Times,serif" font-size="14.00" fill="#000000">close</text>
</g>
<!-- Established -->
<g id="node5" class="node">
<title>Established</title>
<polygon fill="none" stroke="#000000" points="479.5,-880 400.5,-880 400.5,-844 479.5,-844 479.5,-880"/>
<text text-anchor="middle" x="440" y="-858.3" font-family="Times,serif" font-size="14.00" fill="#000000">Established</text>
</g>
<!-- SynSent&#45;&gt;Established -->
<g id="edge7" class="edge">
<title>SynSent&#45;&gt;Established</title>
<path fill="none" stroke="#000000" d="M478.4092,-1032.7997C475.57,-1003.8244 468.6088,-945.6166 455,-898 454.1976,-895.1925 453.2399,-892.3093 452.2019,-889.4555"/>
<polygon fill="#000000" stroke="#000000" points="455.4034,-888.0333 448.4731,-880.0194 448.8932,-890.6059 455.4034,-888.0333"/>
<text text-anchor="middle" x="501" y="-952.8" font-family="Times,serif" font-size="14.00" fill="#000000">SYN+ACK</text>
<text text-anchor="middle" x="501" y="-937.8" font-family="Times,serif" font-size="14.00" fill="#000000">→ ACK</text>
</g>
<!-- SynReceived&#45;&gt;Listen -->
<g id="edge5" class="edge">
<title>SynReceived&#45;&gt;Listen</title>
<path fill="none" stroke="#000000" stroke-dasharray="1,5" d="M403.2441,-967.0073C404.8625,-980.823 405.1736,-1000.0054 398,-1015 396.0352,-1019.1069 393.3578,-1022.9273 390.2991,-1026.4265"/>
<polygon fill="#000000" stroke="#000000" points="387.7475,-1024.0279 383.1227,-1033.5601 392.6824,-1028.9924 387.7475,-1024.0279"/>
<text text-anchor="middle" x="416.5" y="-996.3" font-family="Times,serif" font-size="14.00" fill="#000000">RST</text>
</g>
<!-- SynReceived&#45;&gt;Established -->
<g id="edge6" class="edge">
<title>SynReceived&#45;&gt;Established</title>
<path fill="none" stroke="#000000" d="M408.288,-930.9735C413.8122,-918.9585 421.177,-902.9401 427.4186,-889.3646"/>
<polygon fill="#000000" stroke="#000000" points="430.7252,-890.5512 431.7226,-880.0034 424.3652,-887.627 430.7252,-890.5512"/>
<text text-anchor="middle" x="436.5" y="-901.8" font-family="Times,serif" font-size="14.00" fill="#000000">ACK</text>
</g>
<!-- pLastRead -->
<g id="node9" class="node">
<title>pLastRead</title>
<polygon fill="none" stroke="#000000" points="589,-663 476.7255,-645 589,-627 701.2745,-645 589,-663"/>
<text text-anchor="middle" x="589" y="-641.3" font-family="Times,serif" font-size="14.00" fill="#000000">Has user read FIN?</text>
</g>
<!-- Established&#45;&gt;pLastRead -->
<g id="edge10" class="edge">
<title>Established&#45;&gt;pLastRead</title>
<path fill="none" stroke="#000000" d="M452.7406,-843.7014C456.6785,-838.0328 461.0252,-831.7626 465,-826 503.3167,-770.4487 547.9882,-705.0973 571.8668,-670.1167"/>
<polygon fill="#000000" stroke="#000000" points="575.0046,-671.7279 577.7508,-661.4952 569.2228,-667.7819 575.0046,-671.7279"/>
<text text-anchor="middle" x="547" y="-735.3" font-family="Times,serif" font-size="14.00" fill="#000000">FIN</text>
</g>
<!-- s1f0w -->
<g id="node10" class="node">
<title>s1f0w</title>
<polygon fill="none" stroke="#000000" points="369,-757 301,-757 301,-721 369,-721 369,-757"/>
<text text-anchor="middle" x="335" y="-735.3" font-family="Times,serif" font-size="14.00" fill="#000000">FinWait1</text>
</g>
<!-- Established&#45;&gt;s1f0w -->
<g id="edge9" class="edge">
<title>Established&#45;&gt;s1f0w</title>
<path fill="none" stroke="#000000" d="M424.5069,-843.8509C406.7487,-823.0484 377.4968,-788.782 357.2923,-765.1138"/>
<polygon fill="#000000" stroke="#000000" points="359.7113,-762.5568 350.5567,-757.2235 354.3873,-767.1016 359.7113,-762.5568"/>
<text text-anchor="middle" x="434.5" y="-814.8" font-family="Times,serif" font-size="14.00" fill="#000000">shutdown</text>
<text text-anchor="middle" x="434.5" y="-799.8" font-family="Times,serif" font-size="14.00" fill="#000000">→ FIN</text>
</g>
<!-- s0f1 -->
<g id="node6" class="node">
<title>s0f1</title>
<polygon fill="none" stroke="#000000" points="565.5,-517 476.5,-517 476.5,-481 565.5,-481 565.5,-517"/>
<text text-anchor="middle" x="521" y="-495.3" font-family="Times,serif" font-size="14.00" fill="#000000">No&#45;more&#45;RX</text>
</g>
<!-- s0f2 -->
<g id="node7" class="node">
<title>s0f2</title>
<polygon fill="none" stroke="#000000" points="559.5,-342 496.5,-342 496.5,-306 559.5,-306 559.5,-342"/>
<text text-anchor="middle" x="528" y="-320.3" font-family="Times,serif" font-size="14.00" fill="#000000">TX&#45;only</text>
</g>
<!-- s0f1&#45;&gt;s0f2 -->
<g id="edge19" class="edge">
<title>s0f1&#45;&gt;s0f2</title>
<path fill="none" stroke="#000000" d="M521.187,-480.693C521.4896,-457.1519 522.2414,-415.01 524,-379 524.4203,-370.3938 525.0394,-361.0411 525.6657,-352.5304"/>
<polygon fill="#000000" stroke="#000000" points="529.1737,-352.5583 526.4483,-342.3201 522.1942,-352.0233 529.1737,-352.5583"/>
<text text-anchor="middle" x="566" y="-400.8" font-family="Times,serif" font-size="14.00" fill="#000000">User reads FIN</text>
<text text-anchor="middle" x="566" y="-385.8" font-family="Times,serif" font-size="14.00" fill="#000000">→ ACK</text>
</g>
<!-- s1f1w -->
<g id="node11" class="node">
<title>s1f1w</title>
<polygon fill="none" stroke="#000000" points="370,-415 258,-415 258,-379 370,-379 370,-415"/>
<text text-anchor="middle" x="314" y="-393.3" font-family="Times,serif" font-size="14.00" fill="#000000">Mutual FinWait1</text>
</g>
<!-- s0f1&#45;&gt;s1f1w -->
<g id="edge26" class="edge">
<title>s0f1&#45;&gt;s1f1w</title>
<path fill="none" stroke="#000000" d="M484.4691,-480.9992C449.8017,-463.9168 397.5675,-438.1782 360.0607,-419.6966"/>
<polygon fill="#000000" stroke="#000000" points="361.3792,-416.4445 350.862,-415.1639 358.2851,-422.7236 361.3792,-416.4445"/>
<text text-anchor="middle" x="468.5" y="-451.8" font-family="Times,serif" font-size="14.00" fill="#000000">shutdown</text>
<text text-anchor="middle" x="468.5" y="-436.8" font-family="Times,serif" font-size="14.00" fill="#000000">→ FIN</text>
</g>
<!-- s1f2 -->
<g id="node8" class="node">
<title>s1f2</title>
<polygon fill="none" stroke="#000000" points="578.5,-196 477.5,-196 477.5,-160 578.5,-160 578.5,-196"/>
<text text-anchor="middle" x="528" y="-174.3" font-family="Times,serif" font-size="14.00" fill="#000000">TX&#45;only&#45;buffer</text>
</g>
<!-- s0f2&#45;&gt;s1f2 -->
<g id="edge27" class="edge">
<title>s0f2&#45;&gt;s1f2</title>
<path fill="none" stroke="#000000" d="M528,-305.8042C528,-280.8868 528,-235.8938 528,-206.4877"/>
<polygon fill="#000000" stroke="#000000" points="531.5001,-206.4251 528,-196.4251 524.5001,-206.4251 531.5001,-206.4251"/>
<text text-anchor="middle" x="554.5" y="-254.8" font-family="Times,serif" font-size="14.00" fill="#000000">shutdown</text>
<text text-anchor="middle" x="554.5" y="-239.8" font-family="Times,serif" font-size="14.00" fill="#000000">→ FIN</text>
</g>
<!-- s2f2 -->
<g id="node18" class="node">
<title>s2f2</title>
<polygon fill="none" stroke="#000000" points="524,-36 390,-36 390,0 524,0 524,-36"/>
<text text-anchor="middle" x="457" y="-14.3" font-family="Times,serif" font-size="14.00" fill="#000000">Closed (back to start)</text>
</g>
<!-- s1f2&#45;&gt;s2f2 -->
<g id="edge22" class="edge">
<title>s1f2&#45;&gt;s2f2</title>
<path fill="none" stroke="#000000" d="M519.9934,-159.957C507.6357,-132.1086 483.8253,-78.4514 469.28,-45.6731"/>
<polygon fill="#000000" stroke="#000000" points="472.3416,-43.9434 465.0863,-36.2226 465.9432,-46.7827 472.3416,-43.9434"/>
<text text-anchor="middle" x="517.5" y="-101.3" font-family="Times,serif" font-size="14.00" fill="#000000">ACK</text>
</g>
<!-- pLastRead&#45;&gt;s0f1 -->
<g id="edge11" class="edge">
<title>pLastRead&#45;&gt;s0f1</title>
<path fill="none" stroke="#000000" d="M581.0665,-627.9662C569.4832,-603.0962 547.8123,-556.5676 533.9122,-526.7232"/>
<polygon fill="#000000" stroke="#000000" points="536.9168,-524.8843 529.5219,-517.2971 530.5713,-527.8398 536.9168,-524.8843"/>
<text text-anchor="middle" x="569" y="-568.3" font-family="Times,serif" font-size="14.00" fill="#000000">no</text>
</g>
<!-- pLastRead&#45;&gt;s0f2 -->
<g id="edge12" class="edge">
<title>pLastRead&#45;&gt;s0f2</title>
<path fill="none" stroke="#000000" d="M597.8004,-628.3988C604.65,-613.9229 613,-592.1449 613,-572 613,-572 613,-572 613,-397 613,-371.355 590.4573,-352.7633 568.5901,-340.7615"/>
<polygon fill="#000000" stroke="#000000" points="570.1459,-337.626 559.6509,-336.1748 566.9503,-343.854 570.1459,-337.626"/>
<text text-anchor="middle" x="636.5" y="-502.8" font-family="Times,serif" font-size="14.00" fill="#000000">yes</text>
<text text-anchor="middle" x="636.5" y="-487.8" font-family="Times,serif" font-size="14.00" fill="#000000">→ ACK</text>
</g>
<!-- s2f0w -->
<g id="node13" class="node">
<title>s2f0w</title>
<polygon fill="none" stroke="#000000" points="180,-590 116,-590 116,-554 180,-554 180,-590"/>
<text text-anchor="middle" x="148" y="-568.3" font-family="Times,serif" font-size="14.00" fill="#000000">RX&#45;only</text>
</g>
<!-- s1f0w&#45;&gt;s2f0w -->
<g id="edge23" class="edge">
<title>s1f0w&#45;&gt;s2f0w</title>
<path fill="none" stroke="#000000" d="M314.6317,-720.8102C281.0494,-690.8195 214.0036,-630.9443 175.9914,-596.9976"/>
<polygon fill="#000000" stroke="#000000" points="178.1332,-594.2178 168.3431,-590.1674 173.4705,-599.4389 178.1332,-594.2178"/>
<text text-anchor="middle" x="297.5" y="-641.3" font-family="Times,serif" font-size="14.00" fill="#000000">ACK</text>
</g>
<!-- aLastRead1 -->
<g id="node16" class="node">
<title>aLastRead1</title>
<polygon fill="none" stroke="#000000" points="335,-590 222.7255,-572 335,-554 447.2745,-572 335,-590"/>
<text text-anchor="middle" x="335" y="-568.3" font-family="Times,serif" font-size="14.00" fill="#000000">Has user read FIN?</text>
</g>
<!-- s1f0w&#45;&gt;aLastRead1 -->
<g id="edge13" class="edge">
<title>s1f0w&#45;&gt;aLastRead1</title>
<path fill="none" stroke="#000000" d="M335,-720.8102C335,-691.8234 335,-634.9192 335,-600.4916"/>
<polygon fill="#000000" stroke="#000000" points="338.5001,-600.1674 335,-590.1674 331.5001,-600.1674 338.5001,-600.1674"/>
<text text-anchor="middle" x="346" y="-641.3" font-family="Times,serif" font-size="14.00" fill="#000000">FIN</text>
</g>
<!-- s1f2w -->
<g id="node12" class="node">
<title>s1f2w</title>
<polygon fill="none" stroke="#000000" points="411.5,-269 310.5,-269 310.5,-233 411.5,-233 411.5,-269"/>
<text text-anchor="middle" x="361" y="-247.3" font-family="Times,serif" font-size="14.00" fill="#000000">TX&#45;only&#45;buffer</text>
</g>
<!-- s1f1w&#45;&gt;s1f2w -->
<g id="edge20" class="edge">
<title>s1f1w&#45;&gt;s1f2w</title>
<path fill="none" stroke="#000000" d="M311.3273,-378.9186C309.2823,-360.0816 308.1267,-330.0212 317,-306 320.8532,-295.5689 327.521,-285.6084 334.5176,-277.1005"/>
<polygon fill="#000000" stroke="#000000" points="337.2887,-279.2488 341.2452,-269.4205 332.0232,-274.6363 337.2887,-279.2488"/>
<text text-anchor="middle" x="359" y="-327.8" font-family="Times,serif" font-size="14.00" fill="#000000">User reads FIN</text>
<text text-anchor="middle" x="359" y="-312.8" font-family="Times,serif" font-size="14.00" fill="#000000">→ ACK</text>
</g>
<!-- s2f1w -->
<g id="node14" class="node">
<title>s2f1w</title>
<polygon fill="none" stroke="#000000" points="291.5,-269 190.5,-269 190.5,-233 291.5,-233 291.5,-269"/>
<text text-anchor="middle" x="241" y="-247.3" font-family="Times,serif" font-size="14.00" fill="#000000">RX&#45;only&#45;buffer</text>
</g>
<!-- s1f1w&#45;&gt;s2f1w -->
<g id="edge24" class="edge">
<title>s1f1w&#45;&gt;s2f1w</title>
<path fill="none" stroke="#000000" d="M300.2908,-378.7825C292.8218,-368.356 283.7531,-354.8318 277,-342 266.2513,-321.576 256.7731,-297.2039 250.2437,-278.8247"/>
<polygon fill="#000000" stroke="#000000" points="253.52,-277.5899 246.9303,-269.2938 246.9081,-279.8886 253.52,-277.5899"/>
<text text-anchor="middle" x="291.5" y="-320.3" font-family="Times,serif" font-size="14.00" fill="#000000">ACK</text>
</g>
<!-- s2f2w -->
<g id="node15" class="node">
<title>s2f2w</title>
<polygon fill="none" stroke="#000000" points="337.5,-123 264.5,-123 264.5,-87 337.5,-87 337.5,-123"/>
<text text-anchor="middle" x="301" y="-101.3" font-family="Times,serif" font-size="14.00" fill="#000000">TimeWait</text>
</g>
<!-- s1f2w&#45;&gt;s2f2w -->
<g id="edge25" class="edge">
<title>s1f2w&#45;&gt;s2f2w</title>
<path fill="none" stroke="#000000" d="M359.4614,-232.657C357.1759,-212.1375 351.6941,-178.3266 339,-152 335.4751,-144.6897 330.6116,-137.5065 325.5399,-131.0409"/>
<polygon fill="#000000" stroke="#000000" points="328.173,-128.7333 319.0897,-123.2794 322.7894,-133.2073 328.173,-128.7333"/>
<text text-anchor="middle" x="367.5" y="-174.3" font-family="Times,serif" font-size="14.00" fill="#000000">ACK</text>
</g>
<!-- aLastRead2 -->
<g id="node17" class="node">
<title>aLastRead2</title>
<polygon fill="none" stroke="#000000" points="128,-415 15.7255,-397 128,-379 240.2745,-397 128,-415"/>
<text text-anchor="middle" x="128" y="-393.3" font-family="Times,serif" font-size="14.00" fill="#000000">Has user read FIN?</text>
</g>
<!-- s2f0w&#45;&gt;aLastRead2 -->
<g id="edge16" class="edge">
<title>s2f0w&#45;&gt;aLastRead2</title>
<path fill="none" stroke="#000000" d="M145.935,-553.9311C142.4437,-523.3825 135.3511,-461.3217 131.2079,-425.0689"/>
<polygon fill="#000000" stroke="#000000" points="134.6369,-424.2479 130.024,-414.71 127.6822,-425.0428 134.6369,-424.2479"/>
<text text-anchor="middle" x="152" y="-495.3" font-family="Times,serif" font-size="14.00" fill="#000000">FIN</text>
</g>
<!-- s2f1w&#45;&gt;s2f2w -->
<g id="edge21" class="edge">
<title>s2f1w&#45;&gt;s2f2w</title>
<path fill="none" stroke="#000000" d="M240.2563,-232.8529C240.138,-212.2124 242.1938,-178.0067 255,-152 258.8428,-144.1961 264.4725,-136.8744 270.4852,-130.4391"/>
<polygon fill="#000000" stroke="#000000" points="273.0211,-132.8532 277.6354,-123.316 268.0807,-127.8941 273.0211,-132.8532"/>
<text text-anchor="middle" x="297" y="-181.8" font-family="Times,serif" font-size="14.00" fill="#000000">User reads FIN</text>
<text text-anchor="middle" x="297" y="-166.8" font-family="Times,serif" font-size="14.00" fill="#000000">→ ACK</text>
</g>
<!-- s2f2w&#45;&gt;s2f2 -->
<g id="edge28" class="edge">
<title>s2f2w&#45;&gt;s2f2</title>
<path fill="none" stroke="#000000" d="M333.3233,-86.9735C357.273,-73.617 390.0935,-55.3133 415.9061,-40.9177"/>
<polygon fill="#000000" stroke="#000000" points="417.6892,-43.9309 424.7181,-36.0034 414.2797,-37.8173 417.6892,-43.9309"/>
<text text-anchor="middle" x="409.5" y="-57.8" font-family="Times,serif" font-size="14.00" fill="#000000">timeout</text>
</g>
<!-- aLastRead1&#45;&gt;s1f1w -->
<g id="edge14" class="edge">
<title>aLastRead1&#45;&gt;s1f1w</title>
<path fill="none" stroke="#000000" d="M332.8708,-554.257C329.217,-523.8082 321.7255,-461.3788 317.3607,-425.0056"/>
<polygon fill="#000000" stroke="#000000" points="320.8328,-424.5634 316.1662,-415.0517 313.8827,-425.3975 320.8328,-424.5634"/>
<text text-anchor="middle" x="335" y="-495.3" font-family="Times,serif" font-size="14.00" fill="#000000">no</text>
</g>
<!-- aLastRead1&#45;&gt;s1f2w -->
<g id="edge15" class="edge">
<title>aLastRead1&#45;&gt;s1f2w</title>
<path fill="none" stroke="#000000" d="M361.8421,-558.2076C381.948,-545.75 406,-525.3423 406,-499 406,-499 406,-499 406,-324 406,-306.7798 396.8139,-290.2184 386.7426,-277.2357"/>
<polygon fill="#000000" stroke="#000000" points="389.1762,-274.6891 380.0841,-269.25 383.7999,-279.1719 389.1762,-274.6891"/>
<text text-anchor="middle" x="429.5" y="-400.8" font-family="Times,serif" font-size="14.00" fill="#000000">yes</text>
<text text-anchor="middle" x="429.5" y="-385.8" font-family="Times,serif" font-size="14.00" fill="#000000">→ ACK</text>
</g>
<!-- aLastRead2&#45;&gt;s2f1w -->
<g id="edge17" class="edge">
<title>aLastRead2&#45;&gt;s2f1w</title>
<path fill="none" stroke="#000000" d="M140.5247,-380.8176C159.9588,-355.7081 197.5588,-307.1276 220.8459,-277.0397"/>
<polygon fill="#000000" stroke="#000000" points="223.6547,-279.129 227.0076,-269.0787 218.1191,-274.8446 223.6547,-279.129"/>
<text text-anchor="middle" x="204" y="-320.3" font-family="Times,serif" font-size="14.00" fill="#000000">no</text>
</g>
<!-- aLastRead2&#45;&gt;s2f2w -->
<g id="edge18" class="edge">
<title>aLastRead2&#45;&gt;s2f2w</title>
<path fill="none" stroke="#000000" d="M126.8487,-379.0085C126.0027,-364.2382 125,-342.7728 125,-324 125,-324 125,-324 125,-178 125,-150.0115 201.9006,-127.1281 254.0375,-114.83"/>
<polygon fill="#000000" stroke="#000000" points="255.1444,-118.1668 264.1046,-112.5131 253.5744,-111.3451 255.1444,-118.1668"/>
<text text-anchor="middle" x="148.5" y="-254.8" font-family="Times,serif" font-size="14.00" fill="#000000">yes</text>
<text text-anchor="middle" x="148.5" y="-239.8" font-family="Times,serif" font-size="14.00" fill="#000000">→ ACK</text>
</g>
</g>
</svg>
